%TF.GenerationSoftware,KiCad,Pcbnew,9.0.6*%
%TF.CreationDate,2025-12-11T09:15:32-05:00*%
%TF.ProjectId,Mini_Solar_Supply,4d696e69-5f53-46f6-9c61-725f53757070,rev?*%
%TF.SameCoordinates,Original*%
%TF.FileFunction,Copper,L1,Top*%
%TF.FilePolarity,Positive*%
%FSLAX46Y46*%
G04 Gerber Fmt 4.6, Leading zero omitted, Abs format (unit mm)*
G04 Created by KiCad (PCBNEW 9.0.6) date 2025-12-11 09:15:32*
%MOMM*%
%LPD*%
G01*
G04 APERTURE LIST*
G04 Aperture macros list*
%AMRoundRect*
0 Rectangle with rounded corners*
0 $1 Rounding radius*
0 $2 $3 $4 $5 $6 $7 $8 $9 X,Y pos of 4 corners*
0 Add a 4 corners polygon primitive as box body*
4,1,4,$2,$3,$4,$5,$6,$7,$8,$9,$2,$3,0*
0 Add four circle primitives for the rounded corners*
1,1,$1+$1,$2,$3*
1,1,$1+$1,$4,$5*
1,1,$1+$1,$6,$7*
1,1,$1+$1,$8,$9*
0 Add four rect primitives between the rounded corners*
20,1,$1+$1,$2,$3,$4,$5,0*
20,1,$1+$1,$4,$5,$6,$7,0*
20,1,$1+$1,$6,$7,$8,$9,0*
20,1,$1+$1,$8,$9,$2,$3,0*%
G04 Aperture macros list end*
%TA.AperFunction,ComponentPad*%
%ADD10R,1.700000X1.700000*%
%TD*%
%TA.AperFunction,ComponentPad*%
%ADD11C,1.700000*%
%TD*%
%TA.AperFunction,SMDPad,CuDef*%
%ADD12R,2.120000X1.500000*%
%TD*%
%TA.AperFunction,SMDPad,CuDef*%
%ADD13RoundRect,0.250000X-0.250000X-0.475000X0.250000X-0.475000X0.250000X0.475000X-0.250000X0.475000X0*%
%TD*%
%TA.AperFunction,SMDPad,CuDef*%
%ADD14R,1.300000X0.600000*%
%TD*%
%TA.AperFunction,SMDPad,CuDef*%
%ADD15RoundRect,0.250000X-0.262500X-0.450000X0.262500X-0.450000X0.262500X0.450000X-0.262500X0.450000X0*%
%TD*%
%TA.AperFunction,SMDPad,CuDef*%
%ADD16RoundRect,0.250000X0.970000X0.310000X-0.970000X0.310000X-0.970000X-0.310000X0.970000X-0.310000X0*%
%TD*%
%TA.AperFunction,SMDPad,CuDef*%
%ADD17R,3.302000X2.667000*%
%TD*%
%TA.AperFunction,SMDPad,CuDef*%
%ADD18RoundRect,0.250000X0.262500X0.450000X-0.262500X0.450000X-0.262500X-0.450000X0.262500X-0.450000X0*%
%TD*%
%TA.AperFunction,SMDPad,CuDef*%
%ADD19R,1.181100X0.558800*%
%TD*%
%TA.AperFunction,SMDPad,CuDef*%
%ADD20RoundRect,0.250000X0.325000X0.650000X-0.325000X0.650000X-0.325000X-0.650000X0.325000X-0.650000X0*%
%TD*%
%TA.AperFunction,SMDPad,CuDef*%
%ADD21RoundRect,0.250000X0.250000X0.475000X-0.250000X0.475000X-0.250000X-0.475000X0.250000X-0.475000X0*%
%TD*%
%TA.AperFunction,ViaPad*%
%ADD22C,0.600000*%
%TD*%
%TA.AperFunction,Conductor*%
%ADD23C,0.200000*%
%TD*%
%TA.AperFunction,Conductor*%
%ADD24C,0.350000*%
%TD*%
G04 APERTURE END LIST*
D10*
%TO.P,J2,1,Pin_1*%
%TO.N,/BAT_P*%
X127337200Y-132745400D03*
D11*
%TO.P,J2,2,Pin_2*%
%TO.N,GNDD*%
X127337200Y-130205400D03*
%TD*%
D12*
%TO.P,D2,A*%
%TO.N,/Solar_P+*%
X131940200Y-121005600D03*
%TO.P,D2,C*%
%TO.N,/BAT_P*%
X136170200Y-121005600D03*
%TD*%
D13*
%TO.P,C3,1*%
%TO.N,/OUT_P*%
X149976800Y-136525000D03*
%TO.P,C3,2*%
%TO.N,Net-(U1-FB)*%
X151876800Y-136525000D03*
%TD*%
D14*
%TO.P,Q1,1,G*%
%TO.N,/Solar_P+*%
X131360200Y-133822400D03*
%TO.P,Q1,2,S*%
%TO.N,GNDD*%
X131360200Y-135722400D03*
%TO.P,Q1,3,D*%
%TO.N,Net-(Q1-D)*%
X133460200Y-134772400D03*
%TD*%
D10*
%TO.P,J4,1,Pin_1*%
%TO.N,/Solar_P+*%
X127346400Y-125684200D03*
D11*
%TO.P,J4,2,Pin_2*%
%TO.N,GNDD*%
X127346400Y-123144200D03*
%TD*%
D10*
%TO.P,J1,1,Pin_1*%
%TO.N,GNDD*%
X157540000Y-128214200D03*
D11*
%TO.P,J1,2,Pin_2*%
%TO.N,/OUT_P*%
X157540000Y-130754200D03*
%TD*%
D15*
%TO.P,R2,1*%
%TO.N,Net-(U1-FB)*%
X141022700Y-131419600D03*
%TO.P,R2,2*%
%TO.N,GNDD*%
X142847700Y-131419600D03*
%TD*%
D16*
%TO.P,J3,1,Pin_1*%
%TO.N,Net-(J3-Pin_1)*%
X139610800Y-126314200D03*
%TO.P,J3,2,Pin_2*%
%TO.N,/BAT_P*%
X131000800Y-126314200D03*
%TD*%
D17*
%TO.P,L1,1,1*%
%TO.N,Net-(U1-SW)*%
X151460200Y-121005600D03*
%TO.P,L1,2,2*%
%TO.N,Net-(J3-Pin_1)*%
X151460200Y-126136400D03*
%TD*%
D15*
%TO.P,R4,1*%
%TO.N,/Solar_P+*%
X136679300Y-136474200D03*
%TO.P,R4,2*%
%TO.N,GNDD*%
X138504300Y-136474200D03*
%TD*%
D18*
%TO.P,R3,1*%
%TO.N,Net-(J3-Pin_1)*%
X138580500Y-131495800D03*
%TO.P,R3,2*%
%TO.N,Net-(Q1-D)*%
X136755500Y-131495800D03*
%TD*%
D15*
%TO.P,R1,1*%
%TO.N,/OUT_P*%
X145112100Y-131368800D03*
%TO.P,R1,2*%
%TO.N,Net-(U1-FB)*%
X146937100Y-131368800D03*
%TD*%
D19*
%TO.P,U1,1,SW*%
%TO.N,Net-(U1-SW)*%
X145332450Y-126857801D03*
%TO.P,U1,2,GND*%
%TO.N,GNDD*%
X145332450Y-125907800D03*
%TO.P,U1,3,FB*%
%TO.N,Net-(U1-FB)*%
X145332450Y-124957799D03*
%TO.P,U1,4,SHDN*%
%TO.N,Net-(Q1-D)*%
X142601950Y-124957799D03*
%TO.P,U1,5,VIN*%
%TO.N,Net-(J3-Pin_1)*%
X142601950Y-126857801D03*
%TD*%
D12*
%TO.P,D1,A*%
%TO.N,Net-(U1-SW)*%
X140937800Y-120802400D03*
%TO.P,D1,C*%
%TO.N,/OUT_P*%
X145167800Y-120802400D03*
%TD*%
D20*
%TO.P,C2,1*%
%TO.N,/OUT_P*%
X145975600Y-136423400D03*
%TO.P,C2,2*%
%TO.N,GNDD*%
X143025600Y-136423400D03*
%TD*%
D21*
%TO.P,C1,1*%
%TO.N,Net-(J3-Pin_1)*%
X151851400Y-131394200D03*
%TO.P,C1,2*%
%TO.N,GNDD*%
X149951400Y-131394200D03*
%TD*%
D22*
%TO.N,Net-(J3-Pin_1)*%
X141782800Y-128270000D03*
X147726400Y-129743200D03*
%TO.N,GNDD*%
X148463000Y-131978400D03*
X140868400Y-136474200D03*
X149961600Y-129870200D03*
X134899400Y-135722400D03*
X146558000Y-125653800D03*
X143025600Y-133883400D03*
%TO.N,Net-(U1-FB)*%
X148252200Y-132900400D03*
X141097000Y-132867400D03*
%TD*%
D23*
%TO.N,Net-(J3-Pin_1)*%
X138580500Y-127344500D02*
X139610800Y-126314200D01*
X151851400Y-126527600D02*
X151460200Y-126136400D01*
X139610800Y-126314200D02*
X142058349Y-126314200D01*
X151851400Y-131394200D02*
X151851400Y-126527600D01*
X138580500Y-131495800D02*
X138580500Y-127344500D01*
X141782800Y-127676951D02*
X142601950Y-126857801D01*
X147853400Y-129743200D02*
X147726400Y-129743200D01*
X141782800Y-128270000D02*
X141782800Y-127676951D01*
X151460200Y-126136400D02*
X147853400Y-129743200D01*
X142058349Y-126314200D02*
X142601950Y-126857801D01*
%TO.N,GNDD*%
X136271000Y-134747000D02*
X138404600Y-134747000D01*
X145332450Y-125907800D02*
X146304000Y-125907800D01*
X149047200Y-131394200D02*
X148463000Y-131978400D01*
X146304000Y-125907800D02*
X146558000Y-125653800D01*
X134899400Y-135722400D02*
X135295600Y-135722400D01*
X143025600Y-131597500D02*
X142847700Y-131419600D01*
X140868400Y-136474200D02*
X142974800Y-136474200D01*
X143025600Y-133883400D02*
X143025600Y-131597500D01*
X149961600Y-129870200D02*
X149961600Y-131384000D01*
X138404600Y-136374500D02*
X138504300Y-136474200D01*
X149961600Y-131384000D02*
X149951400Y-131394200D01*
X143025600Y-136423400D02*
X143025600Y-133883400D01*
X131360200Y-135722400D02*
X134899400Y-135722400D01*
X142974800Y-136474200D02*
X143025600Y-136423400D01*
X135295600Y-135722400D02*
X136271000Y-134747000D01*
X149951400Y-131394200D02*
X149047200Y-131394200D01*
X138404600Y-134747000D02*
X138404600Y-136374500D01*
X138504300Y-136474200D02*
X140868400Y-136474200D01*
D24*
%TO.N,/OUT_P*%
X145167800Y-120802400D02*
X145326166Y-120802400D01*
X157540000Y-130754200D02*
X157540000Y-132479026D01*
X149875200Y-136423400D02*
X149976800Y-136525000D01*
X155117800Y-134901226D02*
X155117800Y-137982600D01*
X151434400Y-137982600D02*
X149976800Y-136525000D01*
X147669000Y-123145234D02*
X147669000Y-128811900D01*
X157540000Y-132479026D02*
X155117800Y-134901226D01*
X145975600Y-136423400D02*
X145975600Y-132232300D01*
X145975600Y-136423400D02*
X149875200Y-136423400D01*
X155117800Y-137982600D02*
X151434400Y-137982600D01*
X145326166Y-120802400D02*
X147669000Y-123145234D01*
X147669000Y-128811900D02*
X145112100Y-131368800D01*
X145975600Y-132232300D02*
X145112100Y-131368800D01*
D23*
%TO.N,Net-(U1-FB)*%
X148252200Y-132900400D02*
X146937100Y-131585300D01*
X141097000Y-131493900D02*
X141022700Y-131419600D01*
X144018000Y-127635000D02*
X144018000Y-125247400D01*
X141097000Y-132867400D02*
X141097000Y-131493900D01*
X141022700Y-130630300D02*
X144018000Y-127635000D01*
X141022700Y-131419600D02*
X141022700Y-130630300D01*
X146937100Y-131585300D02*
X146937100Y-131368800D01*
X144018000Y-125247400D02*
X144307601Y-124957799D01*
X151876800Y-136525000D02*
X148252200Y-132900400D01*
X144307601Y-124957799D02*
X145332450Y-124957799D01*
%TO.N,Net-(U1-SW)*%
X140937800Y-119488400D02*
X140937800Y-120802400D01*
X147040600Y-123596400D02*
X147040600Y-123494800D01*
X147040600Y-123494800D02*
X147193000Y-123342400D01*
X140937800Y-123107000D02*
X140937800Y-120802400D01*
X145332450Y-126857801D02*
X146522399Y-126857801D01*
X147167600Y-126212600D02*
X147167600Y-123723400D01*
X141173200Y-123342400D02*
X140937800Y-123107000D01*
X149597400Y-119142800D02*
X141274800Y-119142800D01*
X141274800Y-119142800D02*
X141274800Y-119151400D01*
X146522399Y-126857801D02*
X147167600Y-126212600D01*
X147193000Y-123342400D02*
X141173200Y-123342400D01*
X151460200Y-121005600D02*
X149597400Y-119142800D01*
X141274800Y-119151400D02*
X140937800Y-119488400D01*
X147167600Y-123723400D02*
X147040600Y-123596400D01*
D24*
%TO.N,/Solar_P+*%
X130029200Y-135153400D02*
X125577600Y-135153400D01*
X130029200Y-136093400D02*
X130029200Y-135153400D01*
X127346400Y-125599400D02*
X131940200Y-121005600D01*
X125577600Y-135153400D02*
X125577600Y-127453000D01*
X136679300Y-136474200D02*
X130410000Y-136474200D01*
X127346400Y-125684200D02*
X127346400Y-125599400D01*
X125577600Y-127453000D02*
X127346400Y-125684200D01*
X130410000Y-136474200D02*
X130029200Y-136093400D01*
X131360200Y-133822400D02*
X130029200Y-135153400D01*
%TO.N,/BAT_P*%
X131000800Y-129081800D02*
X131000800Y-126314200D01*
X136170200Y-121144800D02*
X136170200Y-121005600D01*
X127337200Y-132745400D02*
X131000800Y-129081800D01*
X131000800Y-126314200D02*
X136170200Y-121144800D01*
D23*
%TO.N,Net-(Q1-D)*%
X133478900Y-134772400D02*
X136755500Y-131495800D01*
X136755500Y-131495800D02*
X136755500Y-126210700D01*
X133460200Y-134772400D02*
X133478900Y-134772400D01*
X136755500Y-126210700D02*
X138008401Y-124957799D01*
X138008401Y-124957799D02*
X142601950Y-124957799D01*
%TD*%
M02*
