%TF.GenerationSoftware,KiCad,Pcbnew,9.0.6*%
%TF.CreationDate,2025-12-11T09:20:50-05:00*%
%TF.ProjectId,Mini_Solar_Supply,4d696e69-5f53-46f6-9c61-725f53757070,rev?*%
%TF.SameCoordinates,Original*%
%TF.FileFunction,Copper,L2,Bot*%
%TF.FilePolarity,Positive*%
%FSLAX46Y46*%
G04 Gerber Fmt 4.6, Leading zero omitted, Abs format (unit mm)*
G04 Created by KiCad (PCBNEW 9.0.6) date 2025-12-11 09:20:50*
%MOMM*%
%LPD*%
G01*
G04 APERTURE LIST*
%TA.AperFunction,ComponentPad*%
%ADD10R,1.700000X1.700000*%
%TD*%
%TA.AperFunction,ComponentPad*%
%ADD11C,1.700000*%
%TD*%
%TA.AperFunction,ViaPad*%
%ADD12C,0.600000*%
%TD*%
%TA.AperFunction,Conductor*%
%ADD13C,0.200000*%
%TD*%
G04 APERTURE END LIST*
D10*
%TO.P,J2,1,Pin_1*%
%TO.N,/BAT_P*%
X127337200Y-132745400D03*
D11*
%TO.P,J2,2,Pin_2*%
%TO.N,GNDD*%
X127337200Y-130205400D03*
%TD*%
D10*
%TO.P,J4,1,Pin_1*%
%TO.N,/Solar_P+*%
X127346400Y-125684200D03*
D11*
%TO.P,J4,2,Pin_2*%
%TO.N,GNDD*%
X127346400Y-123144200D03*
%TD*%
D10*
%TO.P,J1,1,Pin_1*%
%TO.N,GNDD*%
X157540000Y-128214200D03*
D11*
%TO.P,J1,2,Pin_2*%
%TO.N,/OUT_P*%
X157540000Y-130754200D03*
%TD*%
D12*
%TO.N,Net-(J3-Pin_1)*%
X141782800Y-128270000D03*
X147726400Y-129743200D03*
%TO.N,GNDD*%
X148463000Y-131978400D03*
X140868400Y-136474200D03*
X149961600Y-129870200D03*
X134899400Y-135722400D03*
X146558000Y-125653800D03*
X143025600Y-133883400D03*
%TO.N,Net-(U1-FB)*%
X148252200Y-132900400D03*
X141097000Y-132867400D03*
%TD*%
D13*
%TO.N,Net-(J3-Pin_1)*%
X147726400Y-129743200D02*
X143256000Y-129743200D01*
X143256000Y-129743200D02*
X141782800Y-128270000D01*
%TO.N,GNDD*%
X157540000Y-128214200D02*
X155884000Y-129870200D01*
X155884000Y-129870200D02*
X149961600Y-129870200D01*
%TO.N,Net-(U1-FB)*%
X148252200Y-132900400D02*
X141130000Y-132900400D01*
X141130000Y-132900400D02*
X141097000Y-132867400D01*
%TD*%
%TA.AperFunction,Conductor*%
%TO.N,GNDD*%
G36*
X158541442Y-118790172D02*
G01*
X158587280Y-118842904D01*
X158598562Y-118893623D01*
X158659953Y-126751678D01*
X158640793Y-126818869D01*
X158588348Y-126865036D01*
X158519269Y-126875519D01*
X158505034Y-126871945D01*
X158504930Y-126872387D01*
X158497372Y-126870601D01*
X158437844Y-126864200D01*
X157790000Y-126864200D01*
X157790000Y-127781188D01*
X157732993Y-127748275D01*
X157605826Y-127714200D01*
X157474174Y-127714200D01*
X157347007Y-127748275D01*
X157290000Y-127781188D01*
X157290000Y-126864200D01*
X156642155Y-126864200D01*
X156582627Y-126870601D01*
X156582620Y-126870603D01*
X156447913Y-126920845D01*
X156447906Y-126920849D01*
X156332812Y-127007009D01*
X156332809Y-127007012D01*
X156246649Y-127122106D01*
X156246645Y-127122113D01*
X156196403Y-127256820D01*
X156196401Y-127256827D01*
X156190000Y-127316355D01*
X156190000Y-127964200D01*
X157106988Y-127964200D01*
X157074075Y-128021207D01*
X157040000Y-128148374D01*
X157040000Y-128280026D01*
X157074075Y-128407193D01*
X157106988Y-128464200D01*
X156190000Y-128464200D01*
X156190000Y-129112044D01*
X156196401Y-129171572D01*
X156196403Y-129171579D01*
X156246645Y-129306286D01*
X156246649Y-129306293D01*
X156332809Y-129421387D01*
X156332812Y-129421390D01*
X156447906Y-129507550D01*
X156447913Y-129507554D01*
X156579470Y-129556622D01*
X156635404Y-129598493D01*
X156659821Y-129663958D01*
X156644969Y-129732231D01*
X156623819Y-129760485D01*
X156509889Y-129874415D01*
X156384951Y-130046379D01*
X156288444Y-130235785D01*
X156222753Y-130437960D01*
X156189500Y-130647913D01*
X156189500Y-130860486D01*
X156222753Y-131070439D01*
X156288444Y-131272614D01*
X156384951Y-131462020D01*
X156509890Y-131633986D01*
X156660213Y-131784309D01*
X156832179Y-131909248D01*
X156832181Y-131909249D01*
X156832184Y-131909251D01*
X157021588Y-132005757D01*
X157223757Y-132071446D01*
X157433713Y-132104700D01*
X157433714Y-132104700D01*
X157646286Y-132104700D01*
X157646287Y-132104700D01*
X157856243Y-132071446D01*
X158058412Y-132005757D01*
X158247816Y-131909251D01*
X158387872Y-131807495D01*
X158419784Y-131784310D01*
X158419784Y-131784309D01*
X158419792Y-131784304D01*
X158487742Y-131716353D01*
X158549061Y-131682871D01*
X158618753Y-131687855D01*
X158674687Y-131729726D01*
X158699104Y-131795190D01*
X158699416Y-131803068D01*
X158749026Y-138153020D01*
X158729866Y-138220211D01*
X158677421Y-138266377D01*
X158625416Y-138277988D01*
X126260786Y-138378812D01*
X126193686Y-138359337D01*
X126147767Y-138306676D01*
X126136400Y-138254813D01*
X126136400Y-137246633D01*
X128884400Y-137246633D01*
X130386400Y-137241954D01*
X130386400Y-137238845D01*
X131384400Y-137238845D01*
X132886400Y-137234166D01*
X132886400Y-137231057D01*
X133884400Y-137231057D01*
X135386400Y-137226378D01*
X135386400Y-137223269D01*
X136384400Y-137223269D01*
X137886400Y-137218590D01*
X137886400Y-137215480D01*
X138884400Y-137215480D01*
X139830081Y-137212534D01*
X139825370Y-137206050D01*
X141911429Y-137206050D01*
X142886400Y-137203013D01*
X142886400Y-137199904D01*
X143884400Y-137199904D01*
X145386400Y-137195225D01*
X145386400Y-137192116D01*
X146384400Y-137192116D01*
X147886400Y-137187437D01*
X147886400Y-137184327D01*
X148884400Y-137184327D01*
X150386400Y-137179649D01*
X150386400Y-137176539D01*
X151384400Y-137176539D01*
X152886400Y-137171860D01*
X152886400Y-137168751D01*
X153884400Y-137168751D01*
X155386400Y-137164072D01*
X155386400Y-137160963D01*
X156384400Y-137160963D01*
X157617211Y-137157123D01*
X157612223Y-136518592D01*
X156384400Y-136518592D01*
X156384400Y-137160963D01*
X155386400Y-137160963D01*
X155386400Y-136518592D01*
X153884400Y-136518592D01*
X153884400Y-137168751D01*
X152886400Y-137168751D01*
X152886400Y-136518592D01*
X151384400Y-136518592D01*
X151384400Y-137176539D01*
X150386400Y-137176539D01*
X150386400Y-136518592D01*
X148884400Y-136518592D01*
X148884400Y-137184327D01*
X147886400Y-137184327D01*
X147886400Y-136518592D01*
X146384400Y-136518592D01*
X146384400Y-137192116D01*
X145386400Y-137192116D01*
X145386400Y-136518592D01*
X143884400Y-136518592D01*
X143884400Y-137199904D01*
X142886400Y-137199904D01*
X142886400Y-136518592D01*
X142142400Y-136518592D01*
X142142400Y-136564707D01*
X142140873Y-136584105D01*
X142112556Y-136762890D01*
X142108014Y-136781810D01*
X142052078Y-136953965D01*
X142044632Y-136971942D01*
X141962453Y-137133226D01*
X141952286Y-137149816D01*
X141911429Y-137206050D01*
X139825370Y-137206050D01*
X139784514Y-137149816D01*
X139774347Y-137133226D01*
X139692168Y-136971942D01*
X139684722Y-136953965D01*
X139628786Y-136781810D01*
X139624244Y-136762890D01*
X139595927Y-136584105D01*
X139594400Y-136564707D01*
X139594400Y-136518592D01*
X138884400Y-136518592D01*
X138884400Y-137215480D01*
X137886400Y-137215480D01*
X137886400Y-136518592D01*
X136384400Y-136518592D01*
X136384400Y-137223269D01*
X135386400Y-137223269D01*
X135386400Y-136903081D01*
X135379165Y-136906078D01*
X135207010Y-136962014D01*
X135188090Y-136966556D01*
X135009305Y-136994873D01*
X134989907Y-136996400D01*
X134808893Y-136996400D01*
X134789495Y-136994873D01*
X134610710Y-136966556D01*
X134591790Y-136962014D01*
X134419635Y-136906078D01*
X134401658Y-136898632D01*
X134240374Y-136816453D01*
X134223784Y-136806286D01*
X134077340Y-136699889D01*
X134062544Y-136687252D01*
X133934548Y-136559256D01*
X133921911Y-136544460D01*
X133903117Y-136518592D01*
X133884400Y-136518592D01*
X133884400Y-137231057D01*
X132886400Y-137231057D01*
X132886400Y-136518592D01*
X131384400Y-136518592D01*
X131384400Y-137238845D01*
X130386400Y-137238845D01*
X130386400Y-136518592D01*
X128884400Y-136518592D01*
X128884400Y-137246633D01*
X126136400Y-137246633D01*
X126136400Y-134927909D01*
X128884400Y-134927909D01*
X128884400Y-135520592D01*
X130386400Y-135520592D01*
X131384400Y-135520592D01*
X132886400Y-135520592D01*
X136384400Y-135520592D01*
X137886400Y-135520592D01*
X138884400Y-135520592D01*
X140020300Y-135520592D01*
X140031544Y-135509348D01*
X140046340Y-135496711D01*
X140192784Y-135390314D01*
X140209374Y-135380147D01*
X140370658Y-135297968D01*
X140386400Y-135291447D01*
X140386400Y-134643966D01*
X141384400Y-134643966D01*
X141384400Y-135307270D01*
X141527426Y-135380147D01*
X141544016Y-135390314D01*
X141690460Y-135496711D01*
X141705256Y-135509348D01*
X141716500Y-135520592D01*
X142886400Y-135520592D01*
X142886400Y-135151233D01*
X142736910Y-135127556D01*
X142717990Y-135123014D01*
X142545835Y-135067078D01*
X142527858Y-135059632D01*
X142366574Y-134977453D01*
X142349984Y-134967286D01*
X142203540Y-134860889D01*
X142188744Y-134848252D01*
X142166800Y-134826308D01*
X143884400Y-134826308D01*
X143884400Y-135520592D01*
X145386400Y-135520592D01*
X146384400Y-135520592D01*
X147886400Y-135520592D01*
X147886400Y-134661371D01*
X147799965Y-134644179D01*
X147794023Y-134642845D01*
X147758297Y-134633895D01*
X147752433Y-134632272D01*
X147705538Y-134618046D01*
X147699760Y-134616137D01*
X147665099Y-134603735D01*
X147659422Y-134601545D01*
X147620000Y-134585216D01*
X148884400Y-134585216D01*
X148884400Y-135520592D01*
X150386400Y-135520592D01*
X151384400Y-135520592D01*
X152886400Y-135520592D01*
X153884400Y-135520592D01*
X155386400Y-135520592D01*
X156384400Y-135520592D01*
X157604427Y-135520592D01*
X157592692Y-134018592D01*
X156384400Y-134018592D01*
X156384400Y-135520592D01*
X155386400Y-135520592D01*
X155386400Y-134018592D01*
X153884400Y-134018592D01*
X153884400Y-135520592D01*
X152886400Y-135520592D01*
X152886400Y-134018592D01*
X151384400Y-134018592D01*
X151384400Y-135520592D01*
X150386400Y-135520592D01*
X150386400Y-134018592D01*
X149665842Y-134018592D01*
X149664745Y-134020071D01*
X149661001Y-134024869D01*
X149629912Y-134062751D01*
X149625938Y-134067358D01*
X149601207Y-134094645D01*
X149597009Y-134099054D01*
X149450854Y-134245209D01*
X149446445Y-134249407D01*
X149419158Y-134274138D01*
X149414551Y-134278112D01*
X149376669Y-134309201D01*
X149371871Y-134312945D01*
X149342298Y-134334878D01*
X149337322Y-134338383D01*
X149165463Y-134453216D01*
X149160318Y-134456474D01*
X149128725Y-134475409D01*
X149123430Y-134478408D01*
X149080209Y-134501509D01*
X149074774Y-134504245D01*
X149041492Y-134519986D01*
X149035928Y-134522452D01*
X148884400Y-134585216D01*
X147620000Y-134585216D01*
X147468472Y-134522452D01*
X147462908Y-134519986D01*
X147429626Y-134504245D01*
X147424191Y-134501509D01*
X147419310Y-134498900D01*
X146384400Y-134498900D01*
X146384400Y-135520592D01*
X145386400Y-135520592D01*
X145386400Y-134498900D01*
X144141830Y-134498900D01*
X144119652Y-134542427D01*
X144109486Y-134559016D01*
X144003089Y-134705460D01*
X143990452Y-134720256D01*
X143884400Y-134826308D01*
X142166800Y-134826308D01*
X142060748Y-134720256D01*
X142048111Y-134705460D01*
X141941714Y-134559016D01*
X141931548Y-134542427D01*
X141909370Y-134498900D01*
X141857918Y-134498900D01*
X141689778Y-134568545D01*
X141684101Y-134570735D01*
X141649440Y-134583137D01*
X141643662Y-134585046D01*
X141596767Y-134599272D01*
X141590903Y-134600895D01*
X141555177Y-134609845D01*
X141549235Y-134611179D01*
X141384400Y-134643966D01*
X140386400Y-134643966D01*
X140386400Y-134519742D01*
X140313272Y-134489453D01*
X140307708Y-134486986D01*
X140274426Y-134471245D01*
X140268991Y-134468509D01*
X140225770Y-134445408D01*
X140220475Y-134442409D01*
X140188882Y-134423474D01*
X140183737Y-134420216D01*
X140011878Y-134305383D01*
X140006902Y-134301878D01*
X139977329Y-134279945D01*
X139972531Y-134276201D01*
X139934649Y-134245112D01*
X139930042Y-134241138D01*
X139902755Y-134216407D01*
X139898346Y-134212209D01*
X139752191Y-134066054D01*
X139747993Y-134061645D01*
X139723262Y-134034358D01*
X139719288Y-134029751D01*
X139710130Y-134018592D01*
X138884400Y-134018592D01*
X138884400Y-135520592D01*
X137886400Y-135520592D01*
X137886400Y-134018592D01*
X136384400Y-134018592D01*
X136384400Y-135520592D01*
X132886400Y-135520592D01*
X132886400Y-134951969D01*
X133884400Y-134951969D01*
X133921911Y-134900340D01*
X133934548Y-134885544D01*
X134062544Y-134757548D01*
X134077340Y-134744911D01*
X134223784Y-134638514D01*
X134240374Y-134628347D01*
X134401658Y-134546168D01*
X134419635Y-134538722D01*
X134591790Y-134482786D01*
X134610710Y-134478244D01*
X134789495Y-134449927D01*
X134808893Y-134448400D01*
X134989907Y-134448400D01*
X135009305Y-134449927D01*
X135188090Y-134478244D01*
X135207010Y-134482786D01*
X135379165Y-134538722D01*
X135386400Y-134541718D01*
X135386400Y-134018592D01*
X133884400Y-134018592D01*
X133884400Y-134951969D01*
X132886400Y-134951969D01*
X132886400Y-134018592D01*
X131384400Y-134018592D01*
X131384400Y-135520592D01*
X130386400Y-135520592D01*
X130386400Y-134018592D01*
X129628561Y-134018592D01*
X129627271Y-134022412D01*
X129553613Y-134219902D01*
X129550225Y-134228082D01*
X129527967Y-134276819D01*
X129524005Y-134284733D01*
X129489828Y-134347323D01*
X129485310Y-134354937D01*
X129456346Y-134400004D01*
X129451298Y-134407274D01*
X129322314Y-134579573D01*
X129316761Y-134586464D01*
X129281681Y-134626949D01*
X129275649Y-134633428D01*
X129225228Y-134683849D01*
X129218749Y-134689881D01*
X129178264Y-134724961D01*
X129171373Y-134730514D01*
X128999074Y-134859498D01*
X128991804Y-134864546D01*
X128946737Y-134893510D01*
X128939123Y-134898028D01*
X128884400Y-134927909D01*
X126136400Y-134927909D01*
X126136400Y-134177333D01*
X126156085Y-134110294D01*
X126208889Y-134064539D01*
X126278047Y-134054595D01*
X126303733Y-134061151D01*
X126379717Y-134089491D01*
X126379716Y-134089491D01*
X126386644Y-134090235D01*
X126439327Y-134095900D01*
X128235072Y-134095899D01*
X128294683Y-134089491D01*
X128429531Y-134039196D01*
X128544746Y-133952946D01*
X128630996Y-133837731D01*
X128681291Y-133702883D01*
X128687700Y-133643273D01*
X128687699Y-131847528D01*
X128681291Y-131787917D01*
X128679945Y-131784309D01*
X128630997Y-131653071D01*
X128630993Y-131653064D01*
X128544747Y-131537855D01*
X128544744Y-131537852D01*
X128519016Y-131518592D01*
X129642752Y-131518592D01*
X129643353Y-131520572D01*
X129645368Y-131528048D01*
X129659716Y-131588763D01*
X129661261Y-131596355D01*
X129669172Y-131642560D01*
X129670241Y-131650233D01*
X129681412Y-131754155D01*
X129681723Y-131757464D01*
X129683335Y-131777501D01*
X129683557Y-131780813D01*
X129684986Y-131807495D01*
X129685119Y-131810813D01*
X129685655Y-131830864D01*
X129685699Y-131834178D01*
X129685700Y-133020592D01*
X130386400Y-133020592D01*
X131384400Y-133020592D01*
X132886400Y-133020592D01*
X133884400Y-133020592D01*
X135386400Y-133020592D01*
X136384400Y-133020592D01*
X137886400Y-133020592D01*
X138884400Y-133020592D01*
X139300994Y-133020592D01*
X139300903Y-133019667D01*
X139300455Y-133013597D01*
X139298649Y-132976825D01*
X139298500Y-132970742D01*
X139298500Y-132788553D01*
X140296500Y-132788553D01*
X140296500Y-132946246D01*
X140327261Y-133100889D01*
X140327264Y-133100901D01*
X140387602Y-133246572D01*
X140387609Y-133246585D01*
X140475210Y-133377688D01*
X140475213Y-133377692D01*
X140586707Y-133489186D01*
X140586711Y-133489189D01*
X140717814Y-133576790D01*
X140717827Y-133576797D01*
X140863498Y-133637135D01*
X140863503Y-133637137D01*
X141018153Y-133667899D01*
X141018156Y-133667900D01*
X141018158Y-133667900D01*
X141175844Y-133667900D01*
X141175845Y-133667899D01*
X141330497Y-133637137D01*
X141476179Y-133576794D01*
X141558486Y-133521797D01*
X141625163Y-133500920D01*
X141627377Y-133500900D01*
X147672434Y-133500900D01*
X147739473Y-133520585D01*
X147741325Y-133521798D01*
X147873014Y-133609790D01*
X147873027Y-133609797D01*
X147953871Y-133643283D01*
X148018703Y-133670137D01*
X148173353Y-133700899D01*
X148173356Y-133700900D01*
X148173358Y-133700900D01*
X148331044Y-133700900D01*
X148331045Y-133700899D01*
X148485697Y-133670137D01*
X148631379Y-133609794D01*
X148762489Y-133522189D01*
X148873989Y-133410689D01*
X148961594Y-133279579D01*
X149021937Y-133133897D01*
X149052700Y-132979242D01*
X149052700Y-132821558D01*
X149052700Y-132821555D01*
X149052699Y-132821553D01*
X149032738Y-132721203D01*
X149021937Y-132666903D01*
X149021935Y-132666898D01*
X148961597Y-132521227D01*
X148961590Y-132521214D01*
X148873989Y-132390111D01*
X148873986Y-132390107D01*
X148762492Y-132278613D01*
X148762488Y-132278610D01*
X148631385Y-132191009D01*
X148631372Y-132191002D01*
X148485701Y-132130664D01*
X148485689Y-132130661D01*
X148331045Y-132099900D01*
X148331042Y-132099900D01*
X148173358Y-132099900D01*
X148173355Y-132099900D01*
X148018710Y-132130661D01*
X148018698Y-132130664D01*
X147873027Y-132191002D01*
X147873014Y-132191009D01*
X147741325Y-132279002D01*
X147674647Y-132299880D01*
X147672434Y-132299900D01*
X141712941Y-132299900D01*
X141645902Y-132280215D01*
X141625260Y-132263581D01*
X141607292Y-132245613D01*
X141607288Y-132245610D01*
X141476185Y-132158009D01*
X141476172Y-132158002D01*
X141330501Y-132097664D01*
X141330489Y-132097661D01*
X141175845Y-132066900D01*
X141175842Y-132066900D01*
X141018158Y-132066900D01*
X141018155Y-132066900D01*
X140863510Y-132097661D01*
X140863498Y-132097664D01*
X140717827Y-132158002D01*
X140717814Y-132158009D01*
X140586711Y-132245610D01*
X140586707Y-132245613D01*
X140475213Y-132357107D01*
X140475210Y-132357111D01*
X140387609Y-132488214D01*
X140387602Y-132488227D01*
X140327264Y-132633898D01*
X140327261Y-132633910D01*
X140296500Y-132788553D01*
X139298500Y-132788553D01*
X139298500Y-132764058D01*
X139298649Y-132757975D01*
X139300455Y-132721203D01*
X139300903Y-132715133D01*
X139305706Y-132666361D01*
X139306451Y-132660320D01*
X139311855Y-132623889D01*
X139312896Y-132617892D01*
X139353221Y-132415165D01*
X139354555Y-132409223D01*
X139363505Y-132373497D01*
X139365128Y-132367633D01*
X139379354Y-132320738D01*
X139381263Y-132314960D01*
X139393665Y-132280299D01*
X139395855Y-132274622D01*
X139474948Y-132083672D01*
X139477414Y-132078108D01*
X139493155Y-132044826D01*
X139495891Y-132039391D01*
X139518992Y-131996170D01*
X139521991Y-131990875D01*
X139540926Y-131959282D01*
X139544184Y-131954137D01*
X139659017Y-131782278D01*
X139662522Y-131777302D01*
X139684455Y-131747729D01*
X139688199Y-131742931D01*
X139719288Y-131705049D01*
X139723262Y-131700442D01*
X139747993Y-131673155D01*
X139752191Y-131668746D01*
X139898346Y-131522591D01*
X139902546Y-131518592D01*
X149653162Y-131518592D01*
X149702614Y-131670790D01*
X149707156Y-131689710D01*
X149735473Y-131868495D01*
X149736772Y-131885003D01*
X149805016Y-131987137D01*
X149808274Y-131992282D01*
X149827209Y-132023875D01*
X149830208Y-132029170D01*
X149853309Y-132072391D01*
X149856045Y-132077826D01*
X149871786Y-132111108D01*
X149874252Y-132116672D01*
X149953345Y-132307622D01*
X149955535Y-132313299D01*
X149967937Y-132347960D01*
X149969846Y-132353738D01*
X149984072Y-132400633D01*
X149985695Y-132406497D01*
X149994645Y-132442223D01*
X149995979Y-132448165D01*
X150036304Y-132650892D01*
X150037345Y-132656889D01*
X150042749Y-132693320D01*
X150043494Y-132699361D01*
X150048297Y-132748133D01*
X150048745Y-132754203D01*
X150050551Y-132790975D01*
X150050700Y-132797058D01*
X150050700Y-133003742D01*
X150050551Y-133009825D01*
X150050022Y-133020592D01*
X150386400Y-133020592D01*
X151384400Y-133020592D01*
X152886400Y-133020592D01*
X153884400Y-133020592D01*
X155386400Y-133020592D01*
X155386400Y-131699955D01*
X155375846Y-131677061D01*
X155373891Y-131672592D01*
X155358893Y-131636375D01*
X155357121Y-131631847D01*
X155346936Y-131604237D01*
X155345342Y-131599640D01*
X155319008Y-131518592D01*
X153884400Y-131518592D01*
X153884400Y-133020592D01*
X152886400Y-133020592D01*
X152886400Y-131518592D01*
X151384400Y-131518592D01*
X151384400Y-133020592D01*
X150386400Y-133020592D01*
X150386400Y-131518592D01*
X149653162Y-131518592D01*
X139902546Y-131518592D01*
X138884400Y-131518592D01*
X138884400Y-133020592D01*
X137886400Y-133020592D01*
X137886400Y-131518592D01*
X136384400Y-131518592D01*
X136384400Y-133020592D01*
X135386400Y-133020592D01*
X135386400Y-131518592D01*
X133884400Y-131518592D01*
X133884400Y-133020592D01*
X132886400Y-133020592D01*
X132886400Y-131518592D01*
X131384400Y-131518592D01*
X131384400Y-133020592D01*
X130386400Y-133020592D01*
X130386400Y-131518592D01*
X129642752Y-131518592D01*
X128519016Y-131518592D01*
X128429535Y-131451606D01*
X128429528Y-131451602D01*
X128294682Y-131401308D01*
X128294683Y-131401308D01*
X128235083Y-131394901D01*
X128235081Y-131394900D01*
X128235073Y-131394900D01*
X128235065Y-131394900D01*
X128224509Y-131394900D01*
X128157470Y-131375215D01*
X128136828Y-131358581D01*
X127466608Y-130688362D01*
X127530193Y-130671325D01*
X127644207Y-130605499D01*
X127737299Y-130512407D01*
X127803125Y-130398393D01*
X127820162Y-130334808D01*
X128452470Y-130967117D01*
X128452470Y-130967116D01*
X128491822Y-130912954D01*
X128588295Y-130723617D01*
X128653957Y-130521530D01*
X128653957Y-130521527D01*
X128687200Y-130311646D01*
X128687200Y-130099153D01*
X128653957Y-129889272D01*
X128653957Y-129889269D01*
X128588295Y-129687182D01*
X128491824Y-129497849D01*
X128452470Y-129443682D01*
X128452469Y-129443682D01*
X127820162Y-130075990D01*
X127803125Y-130012407D01*
X127737299Y-129898393D01*
X127644207Y-129805301D01*
X127530193Y-129739475D01*
X127466609Y-129722437D01*
X128098916Y-129090128D01*
X128044750Y-129050775D01*
X127981588Y-129018592D01*
X129367382Y-129018592D01*
X129369848Y-129022995D01*
X129372144Y-129027290D01*
X129486414Y-129251554D01*
X129488540Y-129255937D01*
X129500869Y-129282681D01*
X129502819Y-129287139D01*
X129517821Y-129323355D01*
X129519596Y-129327891D01*
X129529795Y-129355536D01*
X129531391Y-129360137D01*
X129609174Y-129599530D01*
X129610589Y-129604194D01*
X129618591Y-129632571D01*
X129619821Y-129637287D01*
X129628969Y-129675404D01*
X129630011Y-129680156D01*
X129635751Y-129709019D01*
X129636606Y-129713807D01*
X129675977Y-129962380D01*
X129676645Y-129967204D01*
X129680105Y-129996438D01*
X129680581Y-130001275D01*
X129683659Y-130040354D01*
X129683946Y-130045219D01*
X129685104Y-130074671D01*
X129685200Y-130079543D01*
X129685200Y-130331257D01*
X129685104Y-130336129D01*
X129683946Y-130365581D01*
X129683659Y-130370446D01*
X129680581Y-130409525D01*
X129680105Y-130414362D01*
X129676645Y-130443596D01*
X129675977Y-130448420D01*
X129664546Y-130520592D01*
X130386400Y-130520592D01*
X131384400Y-130520592D01*
X132886400Y-130520592D01*
X133884400Y-130520592D01*
X135386400Y-130520592D01*
X136384400Y-130520592D01*
X137886400Y-130520592D01*
X138884400Y-130520592D01*
X140386400Y-130520592D01*
X140386400Y-129409579D01*
X140373999Y-129394469D01*
X140370255Y-129389671D01*
X140348322Y-129360098D01*
X140344817Y-129355122D01*
X140229984Y-129183263D01*
X140226726Y-129178118D01*
X140207791Y-129146525D01*
X140204792Y-129141230D01*
X140181691Y-129098009D01*
X140178955Y-129092574D01*
X140163214Y-129059292D01*
X140160748Y-129053728D01*
X140146195Y-129018592D01*
X138884400Y-129018592D01*
X138884400Y-130520592D01*
X137886400Y-130520592D01*
X137886400Y-129018592D01*
X136384400Y-129018592D01*
X136384400Y-130520592D01*
X135386400Y-130520592D01*
X135386400Y-129018592D01*
X133884400Y-129018592D01*
X133884400Y-130520592D01*
X132886400Y-130520592D01*
X132886400Y-129018592D01*
X131384400Y-129018592D01*
X131384400Y-130520592D01*
X130386400Y-130520592D01*
X130386400Y-129018592D01*
X129367382Y-129018592D01*
X127981588Y-129018592D01*
X127855417Y-128954304D01*
X127653329Y-128888642D01*
X127443446Y-128855400D01*
X127230954Y-128855400D01*
X127021072Y-128888642D01*
X127021069Y-128888642D01*
X126818982Y-128954304D01*
X126629639Y-129050780D01*
X126575482Y-129090127D01*
X126575482Y-129090128D01*
X127207791Y-129722437D01*
X127144207Y-129739475D01*
X127030193Y-129805301D01*
X126937101Y-129898393D01*
X126871275Y-130012407D01*
X126854237Y-130075991D01*
X126204303Y-129426057D01*
X126201745Y-129425520D01*
X126151991Y-129376466D01*
X126136400Y-129316270D01*
X126136400Y-128191153D01*
X140982300Y-128191153D01*
X140982300Y-128348846D01*
X141013061Y-128503489D01*
X141013064Y-128503501D01*
X141073402Y-128649172D01*
X141073409Y-128649185D01*
X141161010Y-128780288D01*
X141161013Y-128780292D01*
X141272507Y-128891786D01*
X141272511Y-128891789D01*
X141403614Y-128979390D01*
X141403627Y-128979397D01*
X141534984Y-129033806D01*
X141549303Y-129039737D01*
X141604820Y-129050780D01*
X141704649Y-129070638D01*
X141766560Y-129103023D01*
X141768139Y-129104574D01*
X142771139Y-130107574D01*
X142771149Y-130107585D01*
X142775479Y-130111915D01*
X142775480Y-130111916D01*
X142887284Y-130223720D01*
X142887286Y-130223721D01*
X142887290Y-130223724D01*
X143024209Y-130302773D01*
X143024216Y-130302777D01*
X143136019Y-130332734D01*
X143176942Y-130343700D01*
X143176943Y-130343700D01*
X147146634Y-130343700D01*
X147213673Y-130363385D01*
X147215525Y-130364598D01*
X147347214Y-130452590D01*
X147347227Y-130452597D01*
X147488567Y-130511141D01*
X147492903Y-130512937D01*
X147647553Y-130543699D01*
X147647556Y-130543700D01*
X147647558Y-130543700D01*
X147805244Y-130543700D01*
X147805245Y-130543699D01*
X147921412Y-130520592D01*
X151384400Y-130520592D01*
X152886400Y-130520592D01*
X153884400Y-130520592D01*
X155199508Y-130520592D01*
X155200056Y-130515964D01*
X155200723Y-130511141D01*
X155240108Y-130262472D01*
X155240964Y-130257677D01*
X155246713Y-130228777D01*
X155247758Y-130224017D01*
X155256911Y-130185900D01*
X155258138Y-130181195D01*
X155266131Y-130152853D01*
X155267545Y-130148193D01*
X155345342Y-129908760D01*
X155346936Y-129904163D01*
X155357121Y-129876553D01*
X155358893Y-129872025D01*
X155373891Y-129835808D01*
X155375846Y-129831339D01*
X155385188Y-129811071D01*
X155353638Y-129753291D01*
X155349677Y-129745377D01*
X155327419Y-129696641D01*
X155324030Y-129688461D01*
X155250421Y-129491104D01*
X155247942Y-129483764D01*
X155234332Y-129438895D01*
X155232315Y-129431412D01*
X155217972Y-129370701D01*
X155216428Y-129363116D01*
X155208522Y-129316938D01*
X155207455Y-129309269D01*
X155196289Y-129205417D01*
X155195977Y-129202105D01*
X155194364Y-129182056D01*
X155194142Y-129178742D01*
X155192713Y-129152055D01*
X155192580Y-129148739D01*
X155192044Y-129128691D01*
X155192000Y-129125377D01*
X155192000Y-129018592D01*
X153884400Y-129018592D01*
X153884400Y-130520592D01*
X152886400Y-130520592D01*
X152886400Y-129018592D01*
X151384400Y-129018592D01*
X151384400Y-130520592D01*
X147921412Y-130520592D01*
X147959897Y-130512937D01*
X148105579Y-130452594D01*
X148236689Y-130364989D01*
X148348189Y-130253489D01*
X148435794Y-130122379D01*
X148496137Y-129976697D01*
X148526900Y-129822042D01*
X148526900Y-129664358D01*
X148526900Y-129664355D01*
X148526899Y-129664353D01*
X148520577Y-129632571D01*
X148496137Y-129509703D01*
X148485393Y-129483764D01*
X148435797Y-129364027D01*
X148435790Y-129364014D01*
X148348189Y-129232911D01*
X148348186Y-129232907D01*
X148236692Y-129121413D01*
X148236688Y-129121410D01*
X148105585Y-129033809D01*
X148105572Y-129033802D01*
X147959901Y-128973464D01*
X147959889Y-128973461D01*
X147805245Y-128942700D01*
X147805242Y-128942700D01*
X147647558Y-128942700D01*
X147647555Y-128942700D01*
X147492910Y-128973461D01*
X147492898Y-128973464D01*
X147347227Y-129033802D01*
X147347214Y-129033809D01*
X147215525Y-129121802D01*
X147148847Y-129142680D01*
X147146634Y-129142700D01*
X143556097Y-129142700D01*
X143489058Y-129123015D01*
X143468416Y-129106381D01*
X142617374Y-128255339D01*
X142583889Y-128194016D01*
X142583438Y-128191849D01*
X142552538Y-128036510D01*
X142552537Y-128036503D01*
X142546201Y-128021207D01*
X142545946Y-128020592D01*
X143884400Y-128020592D01*
X145386400Y-128020592D01*
X145386400Y-126916184D01*
X146384400Y-126916184D01*
X146384400Y-128020592D01*
X147196095Y-128020592D01*
X148884400Y-128020592D01*
X150386400Y-128020592D01*
X151384400Y-128020592D01*
X152886400Y-128020592D01*
X153884400Y-128020592D01*
X155192000Y-128020592D01*
X155192000Y-127303023D01*
X155192044Y-127299709D01*
X155192580Y-127279661D01*
X155192713Y-127276345D01*
X155194142Y-127249658D01*
X155194364Y-127246344D01*
X155195977Y-127226295D01*
X155196289Y-127222983D01*
X155207455Y-127119131D01*
X155208522Y-127111462D01*
X155216428Y-127065284D01*
X155217972Y-127057699D01*
X155232315Y-126996988D01*
X155234332Y-126989505D01*
X155247942Y-126944636D01*
X155250421Y-126937296D01*
X155324030Y-126739939D01*
X155327419Y-126731759D01*
X155349677Y-126683023D01*
X155353638Y-126675109D01*
X155386400Y-126615110D01*
X155386400Y-126518592D01*
X153884400Y-126518592D01*
X153884400Y-128020592D01*
X152886400Y-128020592D01*
X152886400Y-126518592D01*
X151384400Y-126518592D01*
X151384400Y-128020592D01*
X150386400Y-128020592D01*
X150386400Y-126518592D01*
X148884400Y-126518592D01*
X148884400Y-128020592D01*
X147196095Y-128020592D01*
X147226633Y-128011328D01*
X147232497Y-128009705D01*
X147268223Y-128000755D01*
X147274165Y-127999421D01*
X147476892Y-127959096D01*
X147482889Y-127958055D01*
X147519320Y-127952651D01*
X147525361Y-127951906D01*
X147574133Y-127947103D01*
X147580203Y-127946655D01*
X147616975Y-127944849D01*
X147623058Y-127944700D01*
X147829742Y-127944700D01*
X147835825Y-127944849D01*
X147872597Y-127946655D01*
X147878667Y-127947103D01*
X147886400Y-127947864D01*
X147886400Y-126518592D01*
X147494916Y-126518592D01*
X147394856Y-126618652D01*
X147380060Y-126631289D01*
X147233616Y-126737686D01*
X147217026Y-126747853D01*
X147055742Y-126830032D01*
X147037765Y-126837478D01*
X146865610Y-126893414D01*
X146846690Y-126897956D01*
X146667905Y-126926273D01*
X146648507Y-126927800D01*
X146467493Y-126927800D01*
X146448095Y-126926273D01*
X146384400Y-126916184D01*
X145386400Y-126916184D01*
X145386400Y-126518592D01*
X143884400Y-126518592D01*
X143884400Y-128020592D01*
X142545946Y-128020592D01*
X142492197Y-127890827D01*
X142492190Y-127890814D01*
X142404589Y-127759711D01*
X142404586Y-127759707D01*
X142293092Y-127648213D01*
X142293088Y-127648210D01*
X142161985Y-127560609D01*
X142161972Y-127560602D01*
X142016301Y-127500264D01*
X142016289Y-127500261D01*
X141861645Y-127469500D01*
X141861642Y-127469500D01*
X141703958Y-127469500D01*
X141703955Y-127469500D01*
X141549310Y-127500261D01*
X141549298Y-127500264D01*
X141403627Y-127560602D01*
X141403614Y-127560609D01*
X141272511Y-127648210D01*
X141272507Y-127648213D01*
X141161013Y-127759707D01*
X141161010Y-127759711D01*
X141073409Y-127890814D01*
X141073402Y-127890827D01*
X141013064Y-128036498D01*
X141013061Y-128036510D01*
X140982300Y-128191153D01*
X126136400Y-128191153D01*
X126136400Y-127871672D01*
X128884400Y-127871672D01*
X128884400Y-128020592D01*
X130386400Y-128020592D01*
X131384400Y-128020592D01*
X132886400Y-128020592D01*
X133884400Y-128020592D01*
X135386400Y-128020592D01*
X136384400Y-128020592D01*
X137886400Y-128020592D01*
X138884400Y-128020592D01*
X139998679Y-128020592D01*
X139998696Y-128020492D01*
X140039021Y-127817765D01*
X140040355Y-127811823D01*
X140049305Y-127776097D01*
X140050928Y-127770233D01*
X140065154Y-127723338D01*
X140067063Y-127717560D01*
X140079465Y-127682899D01*
X140081655Y-127677222D01*
X140160748Y-127486272D01*
X140163214Y-127480708D01*
X140178955Y-127447426D01*
X140181691Y-127441991D01*
X140204792Y-127398770D01*
X140207791Y-127393475D01*
X140226726Y-127361882D01*
X140229984Y-127356737D01*
X140344817Y-127184878D01*
X140348322Y-127179902D01*
X140370255Y-127150329D01*
X140373999Y-127145531D01*
X140386400Y-127130420D01*
X140386400Y-126518592D01*
X138884400Y-126518592D01*
X138884400Y-128020592D01*
X137886400Y-128020592D01*
X137886400Y-126518592D01*
X136384400Y-126518592D01*
X136384400Y-128020592D01*
X135386400Y-128020592D01*
X135386400Y-126518592D01*
X133884400Y-126518592D01*
X133884400Y-128020592D01*
X132886400Y-128020592D01*
X132886400Y-126518592D01*
X131384400Y-126518592D01*
X131384400Y-128020592D01*
X130386400Y-128020592D01*
X130386400Y-126518592D01*
X129694900Y-126518592D01*
X129694900Y-126595448D01*
X129694855Y-126598772D01*
X129694316Y-126618873D01*
X129694183Y-126622193D01*
X129692751Y-126648880D01*
X129692529Y-126652189D01*
X129690919Y-126672182D01*
X129690608Y-126675485D01*
X129679438Y-126779375D01*
X129678371Y-126787043D01*
X129670464Y-126833229D01*
X129668919Y-126840819D01*
X129654574Y-126901530D01*
X129652558Y-126909009D01*
X129638950Y-126953872D01*
X129636471Y-126961212D01*
X129562813Y-127158702D01*
X129559425Y-127166882D01*
X129537167Y-127215619D01*
X129533205Y-127223533D01*
X129499028Y-127286123D01*
X129494510Y-127293737D01*
X129465546Y-127338804D01*
X129460498Y-127346074D01*
X129331514Y-127518373D01*
X129325961Y-127525264D01*
X129290881Y-127565749D01*
X129284849Y-127572228D01*
X129234428Y-127622649D01*
X129227949Y-127628681D01*
X129187464Y-127663761D01*
X129180573Y-127669314D01*
X129008274Y-127798298D01*
X129001004Y-127803346D01*
X128955937Y-127832310D01*
X128948323Y-127836828D01*
X128885733Y-127871005D01*
X128884400Y-127871672D01*
X126136400Y-127871672D01*
X126136400Y-127112701D01*
X126156085Y-127045662D01*
X126208889Y-126999907D01*
X126278047Y-126989963D01*
X126303726Y-126996517D01*
X126388917Y-127028291D01*
X126448527Y-127034700D01*
X128244272Y-127034699D01*
X128303883Y-127028291D01*
X128438731Y-126977996D01*
X128553946Y-126891746D01*
X128640196Y-126776531D01*
X128690491Y-126641683D01*
X128696900Y-126582073D01*
X128696899Y-124786328D01*
X128690491Y-124726717D01*
X128687841Y-124719613D01*
X128640197Y-124591871D01*
X128640193Y-124591864D01*
X128553947Y-124476655D01*
X128553944Y-124476652D01*
X128438735Y-124390406D01*
X128438728Y-124390402D01*
X128303882Y-124340108D01*
X128303883Y-124340108D01*
X128244283Y-124333701D01*
X128244281Y-124333700D01*
X128244273Y-124333700D01*
X128244265Y-124333700D01*
X128233709Y-124333700D01*
X128166670Y-124314015D01*
X128146028Y-124297381D01*
X127934857Y-124086210D01*
X129501175Y-124086210D01*
X129533205Y-124144867D01*
X129537167Y-124152781D01*
X129559425Y-124201518D01*
X129562813Y-124209698D01*
X129636469Y-124407182D01*
X129638948Y-124414521D01*
X129652553Y-124459372D01*
X129654568Y-124466848D01*
X129668916Y-124527563D01*
X129670461Y-124535155D01*
X129678372Y-124581360D01*
X129679441Y-124589033D01*
X129690612Y-124692955D01*
X129690923Y-124696264D01*
X129692535Y-124716301D01*
X129692757Y-124719613D01*
X129694186Y-124746295D01*
X129694319Y-124749613D01*
X129694855Y-124769664D01*
X129694899Y-124772978D01*
X129694899Y-125520592D01*
X130386400Y-125520592D01*
X131384400Y-125520592D01*
X132886400Y-125520592D01*
X133884400Y-125520592D01*
X135386400Y-125520592D01*
X136384400Y-125520592D01*
X137886400Y-125520592D01*
X138884400Y-125520592D01*
X140386400Y-125520592D01*
X141384400Y-125520592D01*
X142886400Y-125520592D01*
X143884400Y-125520592D01*
X145289218Y-125520592D01*
X145313844Y-125365110D01*
X145318386Y-125346190D01*
X145374322Y-125174035D01*
X145381768Y-125156059D01*
X145386400Y-125146968D01*
X145386400Y-124391415D01*
X146384400Y-124391415D01*
X146448095Y-124381327D01*
X146467493Y-124379800D01*
X146648507Y-124379800D01*
X146667905Y-124381327D01*
X146846690Y-124409644D01*
X146865610Y-124414186D01*
X147037765Y-124470122D01*
X147055742Y-124477568D01*
X147217026Y-124559747D01*
X147233616Y-124569914D01*
X147380060Y-124676311D01*
X147394856Y-124688948D01*
X147522852Y-124816944D01*
X147535489Y-124831740D01*
X147641886Y-124978184D01*
X147652053Y-124994774D01*
X147734232Y-125156058D01*
X147741678Y-125174035D01*
X147797614Y-125346190D01*
X147802156Y-125365110D01*
X147826782Y-125520592D01*
X147886400Y-125520592D01*
X148884400Y-125520592D01*
X150386400Y-125520592D01*
X151384400Y-125520592D01*
X152886400Y-125520592D01*
X153884400Y-125520592D01*
X155386400Y-125520592D01*
X156384400Y-125520592D01*
X157526302Y-125520592D01*
X157514567Y-124018592D01*
X156384400Y-124018592D01*
X156384400Y-125520592D01*
X155386400Y-125520592D01*
X155386400Y-124018592D01*
X153884400Y-124018592D01*
X153884400Y-125520592D01*
X152886400Y-125520592D01*
X152886400Y-124018592D01*
X151384400Y-124018592D01*
X151384400Y-125520592D01*
X150386400Y-125520592D01*
X150386400Y-124018592D01*
X148884400Y-124018592D01*
X148884400Y-125520592D01*
X147886400Y-125520592D01*
X147886400Y-124018592D01*
X146384400Y-124018592D01*
X146384400Y-124391415D01*
X145386400Y-124391415D01*
X145386400Y-124018592D01*
X143884400Y-124018592D01*
X143884400Y-125520592D01*
X142886400Y-125520592D01*
X142886400Y-124018592D01*
X141384400Y-124018592D01*
X141384400Y-125520592D01*
X140386400Y-125520592D01*
X140386400Y-124018592D01*
X138884400Y-124018592D01*
X138884400Y-125520592D01*
X137886400Y-125520592D01*
X137886400Y-124018592D01*
X136384400Y-124018592D01*
X136384400Y-125520592D01*
X135386400Y-125520592D01*
X135386400Y-124018592D01*
X133884400Y-124018592D01*
X133884400Y-125520592D01*
X132886400Y-125520592D01*
X132886400Y-124018592D01*
X131384400Y-124018592D01*
X131384400Y-125520592D01*
X130386400Y-125520592D01*
X130386400Y-124018592D01*
X129529946Y-124018592D01*
X129528796Y-124021709D01*
X129527021Y-124026245D01*
X129512019Y-124062461D01*
X129510069Y-124066919D01*
X129501175Y-124086210D01*
X127934857Y-124086210D01*
X127475808Y-123627162D01*
X127539393Y-123610125D01*
X127653407Y-123544299D01*
X127746499Y-123451207D01*
X127812325Y-123337193D01*
X127829362Y-123273608D01*
X128461670Y-123905917D01*
X128461670Y-123905916D01*
X128501022Y-123851754D01*
X128597495Y-123662417D01*
X128663157Y-123460330D01*
X128663157Y-123460327D01*
X128696400Y-123250446D01*
X128696400Y-123037953D01*
X128663157Y-122828072D01*
X128663157Y-122828069D01*
X128597495Y-122625982D01*
X128501024Y-122436649D01*
X128461670Y-122382482D01*
X128461669Y-122382482D01*
X127829362Y-123014790D01*
X127812325Y-122951207D01*
X127746499Y-122837193D01*
X127653407Y-122744101D01*
X127539393Y-122678275D01*
X127475809Y-122661237D01*
X128108116Y-122028928D01*
X128053950Y-121989575D01*
X127864617Y-121893104D01*
X127662529Y-121827442D01*
X127452646Y-121794200D01*
X127240154Y-121794200D01*
X127030272Y-121827442D01*
X127030269Y-121827442D01*
X126828182Y-121893104D01*
X126638839Y-121989580D01*
X126584682Y-122028927D01*
X126584682Y-122028928D01*
X127216991Y-122661237D01*
X127153407Y-122678275D01*
X127039393Y-122744101D01*
X126946301Y-122837193D01*
X126880475Y-122951207D01*
X126863437Y-123014791D01*
X126216868Y-122368222D01*
X126201748Y-122365046D01*
X126151993Y-122315993D01*
X126136400Y-122255794D01*
X126136400Y-121518592D01*
X128987235Y-121518592D01*
X129099022Y-121581197D01*
X129138751Y-121616501D01*
X129319941Y-121865891D01*
X129322722Y-121869882D01*
X129339078Y-121894359D01*
X129341703Y-121898460D01*
X129362185Y-121931881D01*
X129364648Y-121936083D01*
X129379048Y-121961795D01*
X129381344Y-121966090D01*
X129495614Y-122190354D01*
X129497740Y-122194737D01*
X129510069Y-122221481D01*
X129512019Y-122225939D01*
X129527021Y-122262155D01*
X129528796Y-122266691D01*
X129538995Y-122294336D01*
X129540591Y-122298937D01*
X129618374Y-122538330D01*
X129619789Y-122542994D01*
X129627791Y-122571371D01*
X129629021Y-122576087D01*
X129638169Y-122614204D01*
X129639211Y-122618956D01*
X129644951Y-122647819D01*
X129645806Y-122652607D01*
X129685177Y-122901180D01*
X129685845Y-122906004D01*
X129689305Y-122935238D01*
X129689781Y-122940075D01*
X129692859Y-122979154D01*
X129693146Y-122984019D01*
X129694304Y-123013471D01*
X129694400Y-123018343D01*
X129694400Y-123020592D01*
X130386400Y-123020592D01*
X131384400Y-123020592D01*
X132886400Y-123020592D01*
X133884400Y-123020592D01*
X135386400Y-123020592D01*
X136384400Y-123020592D01*
X137886400Y-123020592D01*
X138884400Y-123020592D01*
X140386400Y-123020592D01*
X141384400Y-123020592D01*
X142886400Y-123020592D01*
X143884400Y-123020592D01*
X145386400Y-123020592D01*
X146384400Y-123020592D01*
X147886400Y-123020592D01*
X148884400Y-123020592D01*
X150386400Y-123020592D01*
X151384400Y-123020592D01*
X152886400Y-123020592D01*
X153884400Y-123020592D01*
X155386400Y-123020592D01*
X156384400Y-123020592D01*
X157506771Y-123020592D01*
X157495036Y-121518592D01*
X156384400Y-121518592D01*
X156384400Y-123020592D01*
X155386400Y-123020592D01*
X155386400Y-121518592D01*
X153884400Y-121518592D01*
X153884400Y-123020592D01*
X152886400Y-123020592D01*
X152886400Y-121518592D01*
X151384400Y-121518592D01*
X151384400Y-123020592D01*
X150386400Y-123020592D01*
X150386400Y-121518592D01*
X148884400Y-121518592D01*
X148884400Y-123020592D01*
X147886400Y-123020592D01*
X147886400Y-121518592D01*
X146384400Y-121518592D01*
X146384400Y-123020592D01*
X145386400Y-123020592D01*
X145386400Y-121518592D01*
X143884400Y-121518592D01*
X143884400Y-123020592D01*
X142886400Y-123020592D01*
X142886400Y-121518592D01*
X141384400Y-121518592D01*
X141384400Y-123020592D01*
X140386400Y-123020592D01*
X140386400Y-121518592D01*
X138884400Y-121518592D01*
X138884400Y-123020592D01*
X137886400Y-123020592D01*
X137886400Y-121518592D01*
X136384400Y-121518592D01*
X136384400Y-123020592D01*
X135386400Y-123020592D01*
X135386400Y-121518592D01*
X133884400Y-121518592D01*
X133884400Y-123020592D01*
X132886400Y-123020592D01*
X132886400Y-121518592D01*
X131384400Y-121518592D01*
X131384400Y-123020592D01*
X130386400Y-123020592D01*
X130386400Y-121518592D01*
X128987235Y-121518592D01*
X126136400Y-121518592D01*
X126136400Y-119940900D01*
X128884400Y-119940900D01*
X128884400Y-120520592D01*
X130386400Y-120520592D01*
X130386400Y-119938549D01*
X128884400Y-119940900D01*
X126136400Y-119940900D01*
X126136400Y-119936988D01*
X131384400Y-119936988D01*
X131384400Y-120520592D01*
X132886400Y-120520592D01*
X132886400Y-119934637D01*
X131384400Y-119936988D01*
X126136400Y-119936988D01*
X126136400Y-119933075D01*
X133884400Y-119933075D01*
X133884400Y-120520592D01*
X135386400Y-120520592D01*
X135386400Y-119930725D01*
X133884400Y-119933075D01*
X126136400Y-119933075D01*
X126136400Y-119929163D01*
X136384400Y-119929163D01*
X136384400Y-120520592D01*
X137886400Y-120520592D01*
X137886400Y-119926812D01*
X136384400Y-119929163D01*
X126136400Y-119929163D01*
X126136400Y-119925251D01*
X138884400Y-119925251D01*
X138884400Y-120520592D01*
X140386400Y-120520592D01*
X140386400Y-119922900D01*
X138884400Y-119925251D01*
X126136400Y-119925251D01*
X126136400Y-119921338D01*
X141384400Y-119921338D01*
X141384400Y-120520592D01*
X142886400Y-120520592D01*
X142886400Y-119918988D01*
X141384400Y-119921338D01*
X126136400Y-119921338D01*
X126136400Y-119917426D01*
X143884400Y-119917426D01*
X143884400Y-120520592D01*
X145386400Y-120520592D01*
X145386400Y-119915075D01*
X143884400Y-119917426D01*
X126136400Y-119917426D01*
X126136400Y-119913514D01*
X146384400Y-119913514D01*
X146384400Y-120520592D01*
X147886400Y-120520592D01*
X147886400Y-119911163D01*
X146384400Y-119913514D01*
X126136400Y-119913514D01*
X126136400Y-119909601D01*
X148884400Y-119909601D01*
X148884400Y-120520592D01*
X150386400Y-120520592D01*
X150386400Y-119907251D01*
X148884400Y-119909601D01*
X126136400Y-119909601D01*
X126136400Y-119905689D01*
X151384400Y-119905689D01*
X151384400Y-120520592D01*
X152886400Y-120520592D01*
X152886400Y-119903338D01*
X151384400Y-119905689D01*
X126136400Y-119905689D01*
X126136400Y-119901777D01*
X153884400Y-119901777D01*
X153884400Y-120520592D01*
X155386400Y-120520592D01*
X155386400Y-119899426D01*
X153884400Y-119901777D01*
X126136400Y-119901777D01*
X126136400Y-119897864D01*
X156384400Y-119897864D01*
X156384400Y-120520592D01*
X157487239Y-120520592D01*
X157482360Y-119896146D01*
X156384400Y-119897864D01*
X126136400Y-119897864D01*
X126136400Y-118945006D01*
X126156085Y-118877967D01*
X126208889Y-118832212D01*
X126260204Y-118821006D01*
X158474374Y-118770592D01*
X158541442Y-118790172D01*
G37*
%TD.AperFunction*%
%TA.AperFunction,Conductor*%
G36*
X126871275Y-130398393D02*
G01*
X126937101Y-130512407D01*
X127030193Y-130605499D01*
X127144207Y-130671325D01*
X127207790Y-130688362D01*
X126537570Y-131358581D01*
X126476247Y-131392066D01*
X126449898Y-131394900D01*
X126439334Y-131394900D01*
X126439323Y-131394901D01*
X126379714Y-131401309D01*
X126303732Y-131429648D01*
X126234040Y-131434632D01*
X126172717Y-131401146D01*
X126139233Y-131339822D01*
X126136400Y-131313466D01*
X126136400Y-131094528D01*
X126156085Y-131027489D01*
X126197068Y-130991976D01*
X126854237Y-130334808D01*
X126871275Y-130398393D01*
G37*
%TD.AperFunction*%
%TA.AperFunction,Conductor*%
G36*
X126880475Y-123337193D02*
G01*
X126946301Y-123451207D01*
X127039393Y-123544299D01*
X127153407Y-123610125D01*
X127216990Y-123627162D01*
X126546770Y-124297381D01*
X126485447Y-124330866D01*
X126459098Y-124333700D01*
X126448534Y-124333700D01*
X126448523Y-124333701D01*
X126388916Y-124340108D01*
X126303733Y-124371880D01*
X126234041Y-124376864D01*
X126172718Y-124343379D01*
X126139234Y-124282055D01*
X126136400Y-124255698D01*
X126136400Y-124032604D01*
X126156085Y-123965565D01*
X126208889Y-123919810D01*
X126219026Y-123918018D01*
X126863437Y-123273608D01*
X126880475Y-123337193D01*
G37*
%TD.AperFunction*%
%TD*%
M02*
